<svg width="15" height="15" xmlns="http://www.w3.org/2000/svg"><path d="M8.27 0a.75.75 0 01.75.75v.952c.535.14 1.04.35 1.505.622l.672-.672a.75.75 0 011.061 0l1.09 1.09a.75.75 0 010 1.06l-.672.673c.272.465.482.97.622 1.504h.952a.75.75 0 01.75.75V8.27a.75.75 0 01-.75.75h-.952a5.955 5.955 0 01-.622 1.504l.672.673a.75.75 0 010 1.06l-1.09 1.09a.75.75 0 01-1.06 0l-.673-.672c-.466.272-.97.482-1.504.622v.952a.75.75 0 01-.75.75H6.729a.75.75 0 01-.75-.75v-.952a5.953 5.953 0 01-1.504-.622l-.672.673a.75.75 0 01-1.061 0l-1.09-1.09a.75.75 0 010-1.061l.672-.673a5.953 5.953 0 01-.622-1.504H.75A.75.75 0 010 8.27V6.73a.75.75 0 01.75-.75h.952c.14-.534.35-1.038.622-1.503l-.673-.673a.75.75 0 010-1.06l1.09-1.091a.75.75 0 011.061 0l.673.672a5.98 5.98 0 011.504-.622V.75a.75.75 0 01.75-.75zm-.769 4.748a2.752 2.752 0 100 5.504 2.752 2.752 0 000-5.504z" fill="#A6B7D4"/></svg>